<svg xmlns="http://www.w3.org/2000/svg" viewBox="0 0 340 150" width="340" height="150" role="img" aria-label="CamFtp 堆叠 lockup">
  <title>CamFtp 堆叠 lockup</title>
  <g transform="translate(139,12)">
    <g transform="translate(-31.5446,-31.5446) scale(0.4506)">
      <path d="M77.54,70H178.46A7.54,7.54 0 0 1 186,77.54V178.46A7.54,7.54 0 0 1 178.46,186H77.54A7.54,7.54 0 0 1 70,178.46V77.54A7.54,7.54 0 0 1 77.54,70Z" fill="#101820" transform="rotate(12 128 128)"/>
      <path d="M87,81H169A6,6 0 0 1 175,87V154A6,6 0 0 1 169,160H87A6,6 0 0 1 81,154V87A6,6 0 0 1 87,81Z" fill="#0E6E8A" transform="rotate(12 128 128)"/>
    </g>
  </g>
  <g transform="translate(74.198,125.128)" fill="#101820"><g transform="translate(0.00,0.00) scale(0.052000,-0.052000)"><path d="M377 -13C472 -13 544 25 602 92L551 150C504 99 451 68 381 68C241 68 153 184 153 369C153 552 245 666 384 666C447 666 496 637 534 596L584 656C542 703 472 747 383 747C197 747 58 603 58 366C58 128 195 -13 377 -13Z"/></g><g transform="translate(32.38,0.00) scale(0.052000,-0.052000)"><path d="M217 -13C284 -13 345 22 397 65H400L408 0H483V334C483 468 427 557 295 557C208 557 131 518 81 486L117 423C160 452 217 481 280 481C369 481 392 414 392 344C161 318 58 259 58 141C58 43 126 -13 217 -13ZM243 60C189 60 147 85 147 147C147 217 209 262 392 284V132C339 85 296 60 243 60Z"/></g><g transform="translate(60.90,0.00) scale(0.052000,-0.052000)"><path d="M92 0H183V394C233 450 279 477 320 477C389 477 421 434 421 332V0H512V394C563 450 607 477 649 477C718 477 750 434 750 332V0H841V344C841 483 788 557 676 557C610 557 553 514 497 453C475 517 430 557 347 557C282 557 225 516 178 464H175L167 543H92Z"/></g><g transform="translate(108.26,0.00) scale(0.052000,-0.052000)"><path d="M91 0H239V300H502V424H239V617H547V741H91Z"/></g><g transform="translate(137.88,0.00) scale(0.052000,-0.052000)"><path d="M284 -14C333 -14 372 -3 402 7L378 114C363 108 341 102 323 102C273 102 247 132 247 196V444H385V560H247V711H125L108 560L21 553V444H100V196C100 71 151 -14 284 -14Z"/></g><g transform="translate(158.92,0.00) scale(0.052000,-0.052000)"><path d="M79 -215H226V-45L221 47C264 8 311 -14 360 -14C483 -14 598 97 598 289C598 461 516 574 378 574C318 574 260 542 213 502H210L199 560H79ZM327 107C297 107 261 118 226 149V395C264 434 298 453 336 453C413 453 447 394 447 287C447 165 395 107 327 107Z"/></g></g>
</svg>
